<svg width="1008" height="936" viewBox="0 0 1008 936" fill="none" xmlns="http://www.w3.org/2000/svg">
<g filter="url(#filter0_d_11_6)">
<rect x="54" y="50" width="900" height="828" rx="161" fill="url(#paint0_linear_11_6)" stroke="#B4CFEB" stroke-width="100"/>
<path d="M686.097 413.603L504.376 351.567C498.861 349.685 492.756 351.166 488.717 355.366L456.448 388.924C449.425 396.228 451.514 408.249 460.588 412.756L564.214 464.221C565.973 465.095 567.544 466.307 568.837 467.786L662.167 574.606C663.799 576.474 665.869 577.908 668.191 578.78L675.979 581.703C685.786 585.385 696.251 578.135 696.251 567.66V427.799C696.251 421.382 692.169 415.676 686.097 413.603Z" fill="#1B5DA7" stroke="black"/>
<path d="M857.526 350.877L703.242 413.277C697.575 415.569 693.866 421.07 693.866 427.183V567.111C693.866 578.26 705.598 585.513 715.571 580.529L935.203 470.771C943.419 466.666 946.049 456.207 940.752 448.703L875.404 356.132C871.387 350.442 863.982 348.265 857.526 350.877Z" fill="#1B5DA7" stroke="black"/>
<path d="M672.016 281.138L521.048 336.919C512.298 340.152 512.348 352.546 521.125 355.708L687.886 415.774C690.201 416.608 692.743 416.559 695.024 415.637L841.528 356.382C850.084 352.922 849.786 340.708 841.072 337.669L678.775 281.076C676.583 280.312 674.194 280.334 672.016 281.138Z" fill="#1B5DA7" stroke="#EFEBEB" stroke-width="15"/>
<path d="M643.787 430.993L500.703 378.392C457.38 428.071 384.566 513.196 439.892 456.262C495.218 399.329 598.874 415.694 643.787 430.993Z" fill="#EFEBEB"/>
<path d="M332.876 550.718L161.899 470.762C155.415 467.729 147.691 469.701 143.454 475.471L67.9198 578.324C62.7491 585.365 64.6649 595.318 72.08 599.936L318.592 753.463C328.584 759.686 341.522 752.502 341.522 740.731V564.305C341.522 558.482 338.151 553.185 332.876 550.718Z" fill="#1B5DA7" stroke="black"/>
<path d="M342.118 562.651V743.948C342.118 755.109 353.872 762.361 363.847 757.354L663.157 607.131C672.009 602.688 674.202 591.037 667.57 583.681L572.045 477.721C567.942 473.17 561.482 471.572 555.73 473.686L351.944 548.572C346.041 550.741 342.118 556.362 342.118 562.651Z" fill="#1B5DA7" stroke="black"/>
<path d="M377.409 379.981L175.855 458.939C167.609 462.169 167.321 473.731 175.396 477.368L337.762 550.489C340.171 551.574 342.91 551.662 345.382 550.734L544.964 475.832C553.206 472.739 553.719 461.276 545.787 457.459L385.393 380.281C382.889 379.077 379.996 378.968 377.409 379.981Z" fill="#1B5DA7" stroke="#EFEBEB" stroke-width="15"/>
<path d="M264.614 548.057L164.456 497.518C132.659 540.321 77.5323 614.891 111.396 570.747C145.259 526.604 227.651 537.227 264.614 548.057Z" fill="#EFEBEB"/>
<path d="M465.266 513.802L353.618 552.432C349.59 553.826 346.888 557.62 346.888 561.883V735.573C346.888 743.008 354.713 747.843 361.362 744.517L648.69 600.778C652.529 598.857 655.151 597.536 652.195 594.423C645.109 586.957 628.126 568.909 598.477 536.196C552.219 485.159 492.026 499.279 466.9 513.073C466.37 513.364 465.837 513.604 465.266 513.802Z" fill="#EFEBEB"/>
<path d="M812.057 374.171L700.134 419.189C696.347 420.713 693.866 424.385 693.866 428.467V559.25C693.866 566.674 701.67 571.509 708.317 568.205L918.155 463.895C923.896 461.04 925.519 453.591 921.526 448.574C912.937 437.784 899.666 420.869 884.645 401.083C864.155 374.095 829.874 371.458 814.207 373.588C813.465 373.689 812.752 373.892 812.057 374.171Z" fill="#EFEBEB"/>
<mask id="path-12-outside-1_11_6" maskUnits="userSpaceOnUse" x="273.923" y="446.129" width="170.548" height="77.901" fill="black">
<rect fill="white" x="273.923" y="446.129" width="170.548" height="77.901"/>
<path d="M335.648 517.248C332.327 518.584 328.745 519.297 324.902 519.385C321.058 519.474 317.223 519.009 313.395 517.99C309.568 516.971 306.025 515.473 302.766 513.496C299.451 511.484 297.186 509.443 295.972 507.372C294.759 505.287 294.629 503.33 295.58 501.503C296.534 499.661 298.609 498.096 301.807 496.809C304.297 495.807 306.967 495.161 309.815 494.872C312.664 494.584 315.491 494.647 318.297 495.061C321.104 495.476 323.68 496.241 326.028 497.355L320.586 499.545C318.683 498.81 316.443 498.382 313.866 498.261C311.29 498.125 308.803 498.54 306.404 499.506C304.283 500.359 302.933 501.418 302.354 502.68C301.776 503.928 301.963 505.29 302.913 506.766C303.865 508.228 305.573 509.706 308.038 511.202C310.56 512.732 313.187 513.891 315.918 514.679C318.664 515.461 321.346 515.847 323.964 515.838C326.597 515.822 328.99 515.38 331.142 514.514C332.556 513.945 333.613 513.29 334.313 512.551C335.013 511.812 335.337 511.024 335.286 510.186C335.236 509.349 334.784 508.501 333.933 507.643L339.375 505.452C340.994 506.745 341.969 508.104 342.299 509.53C342.63 510.941 342.257 512.321 341.181 513.669C340.105 515.003 338.261 516.196 335.648 517.248ZM356.851 508.026L324.208 488.221L329.465 486.105L334.566 489.199L335.027 489.014C334.022 487.659 333.861 486.359 334.542 485.112C335.21 483.857 336.696 482.765 339.002 481.837C341.339 480.897 343.773 480.41 346.303 480.378C348.834 480.332 351.41 480.661 354.029 481.365L354.398 481.217C353.619 479.829 353.64 478.469 354.462 477.137C355.271 475.796 356.943 474.616 359.479 473.595C362.646 472.32 366.151 471.832 369.992 472.13C373.82 472.419 377.653 473.729 381.493 476.059L403.34 489.313L397.898 491.504L376.051 478.249C373.642 476.788 371.206 476.031 368.742 475.979C366.278 475.927 364.077 476.291 362.14 477.071C359.65 478.073 358.415 479.271 358.435 480.664C358.441 482.049 359.5 483.381 361.611 484.662L382.863 497.556L377.329 499.784L354.971 486.219C353.115 485.093 350.967 484.449 348.527 484.288C346.072 484.117 343.815 484.447 341.755 485.276C340.341 485.845 339.366 486.588 338.83 487.504C338.31 488.414 338.29 489.395 338.769 490.446C339.249 491.482 340.29 492.486 341.891 493.457L362.294 505.836L356.851 508.026ZM427.345 480.337C424.394 481.525 421.101 482.157 417.467 482.233C413.818 482.3 410.095 481.826 406.297 480.809C402.485 479.784 398.851 478.223 395.393 476.126C391.965 474.045 389.627 471.983 388.381 469.94C387.135 467.896 386.963 465.999 387.864 464.25C388.765 462.5 390.706 461.025 393.689 459.825C395.995 458.896 398.171 458.378 400.217 458.269C402.264 458.146 404.087 458.213 405.687 458.47C407.288 458.712 408.572 458.924 409.538 459.107L409.999 458.922L393.932 449.174L399.375 446.983L442.9 473.39L437.642 475.506L432.626 472.463L431.981 472.723C432.176 473.245 432.358 473.93 432.527 474.777C432.682 475.616 432.429 476.525 431.769 477.506C431.095 478.478 429.621 479.421 427.345 480.337ZM423.578 477.307C425.761 476.428 427.081 475.367 427.54 474.125C427.984 472.874 427.662 471.523 426.576 470.073C425.476 468.614 423.693 467.137 421.228 465.641C418.791 464.162 416.274 463.023 413.678 462.224C411.067 461.416 408.499 461.006 405.972 460.993C403.431 460.972 401.054 461.407 398.84 462.298C396.534 463.226 395.158 464.331 394.712 465.612C394.266 466.877 394.587 468.228 395.675 469.664C396.763 471.084 398.455 472.491 400.751 473.883C403.074 475.293 405.57 476.419 408.237 477.262C410.905 478.089 413.56 478.537 416.201 478.603C418.844 478.655 421.303 478.223 423.578 477.307Z"/>
</mask>
<path d="M335.648 517.248C332.327 518.584 328.745 519.297 324.902 519.385C321.058 519.474 317.223 519.009 313.395 517.99C309.568 516.971 306.025 515.473 302.766 513.496C299.451 511.484 297.186 509.443 295.972 507.372C294.759 505.287 294.629 503.33 295.58 501.503C296.534 499.661 298.609 498.096 301.807 496.809C304.297 495.807 306.967 495.161 309.815 494.872C312.664 494.584 315.491 494.647 318.297 495.061C321.104 495.476 323.68 496.241 326.028 497.355L320.586 499.545C318.683 498.81 316.443 498.382 313.866 498.261C311.29 498.125 308.803 498.54 306.404 499.506C304.283 500.359 302.933 501.418 302.354 502.68C301.776 503.928 301.963 505.29 302.913 506.766C303.865 508.228 305.573 509.706 308.038 511.202C310.56 512.732 313.187 513.891 315.918 514.679C318.664 515.461 321.346 515.847 323.964 515.838C326.597 515.822 328.99 515.38 331.142 514.514C332.556 513.945 333.613 513.29 334.313 512.551C335.013 511.812 335.337 511.024 335.286 510.186C335.236 509.349 334.784 508.501 333.933 507.643L339.375 505.452C340.994 506.745 341.969 508.104 342.299 509.53C342.63 510.941 342.257 512.321 341.181 513.669C340.105 515.003 338.261 516.196 335.648 517.248ZM356.851 508.026L324.208 488.221L329.465 486.105L334.566 489.199L335.027 489.014C334.022 487.659 333.861 486.359 334.542 485.112C335.21 483.857 336.696 482.765 339.002 481.837C341.339 480.897 343.773 480.41 346.303 480.378C348.834 480.332 351.41 480.661 354.029 481.365L354.398 481.217C353.619 479.829 353.64 478.469 354.462 477.137C355.271 475.796 356.943 474.616 359.479 473.595C362.646 472.32 366.151 471.832 369.992 472.13C373.82 472.419 377.653 473.729 381.493 476.059L403.34 489.313L397.898 491.504L376.051 478.249C373.642 476.788 371.206 476.031 368.742 475.979C366.278 475.927 364.077 476.291 362.14 477.071C359.65 478.073 358.415 479.271 358.435 480.664C358.441 482.049 359.5 483.381 361.611 484.662L382.863 497.556L377.329 499.784L354.971 486.219C353.115 485.093 350.967 484.449 348.527 484.288C346.072 484.117 343.815 484.447 341.755 485.276C340.341 485.845 339.366 486.588 338.83 487.504C338.31 488.414 338.29 489.395 338.769 490.446C339.249 491.482 340.29 492.486 341.891 493.457L362.294 505.836L356.851 508.026ZM427.345 480.337C424.394 481.525 421.101 482.157 417.467 482.233C413.818 482.3 410.095 481.826 406.297 480.809C402.485 479.784 398.851 478.223 395.393 476.126C391.965 474.045 389.627 471.983 388.381 469.94C387.135 467.896 386.963 465.999 387.864 464.25C388.765 462.5 390.706 461.025 393.689 459.825C395.995 458.896 398.171 458.378 400.217 458.269C402.264 458.146 404.087 458.213 405.687 458.47C407.288 458.712 408.572 458.924 409.538 459.107L409.999 458.922L393.932 449.174L399.375 446.983L442.9 473.39L437.642 475.506L432.626 472.463L431.981 472.723C432.176 473.245 432.358 473.93 432.527 474.777C432.682 475.616 432.429 476.525 431.769 477.506C431.095 478.478 429.621 479.421 427.345 480.337ZM423.578 477.307C425.761 476.428 427.081 475.367 427.54 474.125C427.984 472.874 427.662 471.523 426.576 470.073C425.476 468.614 423.693 467.137 421.228 465.641C418.791 464.162 416.274 463.023 413.678 462.224C411.067 461.416 408.499 461.006 405.972 460.993C403.431 460.972 401.054 461.407 398.84 462.298C396.534 463.226 395.158 464.331 394.712 465.612C394.266 466.877 394.587 468.228 395.675 469.664C396.763 471.084 398.455 472.491 400.751 473.883C403.074 475.293 405.57 476.419 408.237 477.262C410.905 478.089 413.56 478.537 416.201 478.603C418.844 478.655 421.303 478.223 423.578 477.307Z" fill="#EFEBEB"/>
<path d="M324.902 519.385L324.922 519.449L324.922 519.449L324.902 519.385ZM295.972 507.372L295.851 507.383L295.851 507.384L295.972 507.372ZM295.58 501.503L295.703 501.526L295.703 501.526L295.58 501.503ZM318.297 495.061L318.319 495L318.319 495L318.297 495.061ZM326.028 497.355L326.114 497.407L326.22 497.364L326.108 497.311L326.028 497.355ZM320.586 499.545L320.517 499.594L320.6 499.626L320.672 499.597L320.586 499.545ZM313.866 498.261L313.868 498.324L313.869 498.324L313.866 498.261ZM302.354 502.68L302.477 502.702L302.477 502.702L302.354 502.68ZM302.913 506.766L302.794 506.779L302.794 506.779L302.913 506.766ZM315.918 514.679L315.866 514.734L315.866 514.734L315.918 514.679ZM323.964 515.838L323.98 515.902L323.981 515.902L323.964 515.838ZM334.313 512.551L334.198 512.518L334.198 512.518L334.313 512.551ZM335.286 510.186L335.413 510.192L335.413 510.192L335.286 510.186ZM333.933 507.643L333.847 507.591L333.775 507.62L333.821 507.666L333.933 507.643ZM339.375 505.452L339.479 505.423L339.397 505.357L339.289 505.4L339.375 505.452ZM342.299 509.53L342.173 509.53L342.173 509.53L342.299 509.53ZM341.181 513.669L341.298 513.699L341.298 513.699L341.181 513.669ZM335.648 517.248L335.562 517.196C332.257 518.526 328.696 519.234 324.881 519.321L324.902 519.385L324.922 519.449C328.794 519.36 332.397 518.642 335.733 517.299L335.648 517.248ZM324.902 519.385L324.881 519.321C321.062 519.409 317.25 518.947 313.443 517.934L313.395 517.99L313.348 518.046C317.195 519.07 321.054 519.538 324.922 519.449L324.902 519.385ZM313.395 517.99L313.443 517.934C309.635 516.92 306.107 515.429 302.859 513.459L302.766 513.496L302.673 513.533C305.942 515.517 309.5 517.022 313.348 518.046L313.395 517.99ZM302.766 513.496L302.859 513.459C299.554 511.454 297.3 509.421 296.093 507.361L295.972 507.372L295.851 507.384C297.072 509.465 299.347 511.515 302.673 513.533L302.766 513.496ZM295.972 507.372L296.093 507.361C294.886 505.286 294.757 503.342 295.703 501.526L295.58 501.503L295.458 501.48C294.5 503.319 294.632 505.287 295.851 507.383L295.972 507.372ZM295.58 501.503L295.703 501.526C296.649 499.697 298.71 498.142 301.892 496.861L301.807 496.809L301.721 496.757C298.508 498.051 296.418 499.625 295.458 501.48L295.58 501.503ZM301.807 496.809L301.892 496.861C304.371 495.863 307.025 495.222 309.854 494.935L309.815 494.872L309.776 494.81C306.908 495.1 304.223 495.75 301.721 496.757L301.807 496.809ZM309.815 494.872L309.854 494.935C312.684 494.648 315.491 494.711 318.276 495.123L318.297 495.061L318.319 495C315.492 494.582 312.643 494.519 309.776 494.81L309.815 494.872ZM318.297 495.061L318.276 495.123C321.059 495.534 323.616 496.292 325.948 497.399L326.028 497.355L326.108 497.311C323.745 496.189 321.148 495.418 318.319 495L318.297 495.061ZM326.028 497.355L325.943 497.303L320.501 499.493L320.586 499.545L320.672 499.597L326.114 497.407L326.028 497.355ZM320.586 499.545L320.655 499.496C318.728 498.751 316.462 498.319 313.862 498.197L313.866 498.261L313.869 498.324C316.425 498.444 318.639 498.868 320.517 499.594L320.586 499.545ZM313.866 498.261L313.864 498.197C311.249 498.06 308.734 498.482 306.319 499.454L306.404 499.506L306.49 499.557C308.872 498.599 311.33 498.191 313.868 498.324L313.866 498.261ZM306.404 499.506L306.319 499.454C304.18 500.314 302.816 501.383 302.231 502.659L302.354 502.68L302.477 502.702C303.05 501.452 304.385 500.404 306.49 499.557L306.404 499.506ZM302.354 502.68L302.231 502.659C301.648 503.919 301.837 505.293 302.794 506.779L302.913 506.766L303.033 506.753C302.089 505.287 301.905 503.937 302.477 502.702L302.354 502.68ZM302.913 506.766L302.794 506.779C303.752 508.252 305.471 509.738 307.945 511.24L308.038 511.202L308.131 511.165C305.675 509.675 303.977 508.204 303.032 506.753L302.913 506.766ZM308.038 511.202L307.945 511.24C310.476 512.775 313.116 513.941 315.866 514.734L315.918 514.679L315.97 514.625C313.257 513.842 310.644 512.69 308.131 511.165L308.038 511.202ZM315.918 514.679L315.866 514.734C318.631 515.521 321.336 515.911 323.98 515.902L323.964 515.838L323.948 515.774C321.356 515.783 318.697 515.401 315.969 514.625L315.918 514.679ZM323.964 515.838L323.981 515.902C326.642 515.885 329.058 515.439 331.228 514.566L331.142 514.514L331.057 514.462C328.921 515.322 326.552 515.758 323.947 515.774L323.964 515.838ZM331.142 514.514L331.228 514.566C332.653 513.992 333.721 513.332 334.428 512.584L334.313 512.551L334.198 512.518C333.506 513.249 332.46 513.897 331.057 514.462L331.142 514.514ZM334.313 512.551L334.428 512.584C335.135 511.837 335.464 511.039 335.413 510.192L335.286 510.186L335.16 510.18C335.21 511.008 334.89 511.787 334.198 512.518L334.313 512.551ZM335.286 510.186L335.413 510.192C335.361 509.344 334.904 508.486 334.044 507.62L333.933 507.643L333.821 507.666C334.665 508.516 335.11 509.354 335.16 510.18L335.286 510.186ZM333.933 507.643L334.018 507.695L339.46 505.504L339.375 505.452L339.289 505.4L333.847 507.591L333.933 507.643ZM339.375 505.452L339.27 505.481C340.879 506.765 341.846 508.115 342.173 509.53L342.299 509.53L342.424 509.53C342.092 508.094 341.11 506.724 339.479 505.423L339.375 505.452ZM342.299 509.53L342.173 509.53C342.502 510.93 342.132 512.299 341.063 513.639L341.181 513.669L341.298 513.699C342.382 512.342 342.758 510.952 342.424 509.53L342.299 509.53ZM341.181 513.669L341.063 513.639C339.996 514.963 338.164 516.148 335.562 517.196L335.648 517.248L335.733 517.299C338.358 516.243 340.215 515.043 341.298 513.699L341.181 513.669ZM356.851 508.026L356.759 508.064L356.844 508.115L356.937 508.078L356.851 508.026ZM324.208 488.221L324.122 488.169L324.029 488.207L324.115 488.259L324.208 488.221ZM329.465 486.105L329.558 486.068L329.473 486.016L329.38 486.053L329.465 486.105ZM334.566 489.199L334.473 489.237L334.559 489.289L334.651 489.251L334.566 489.199ZM335.027 489.014L335.113 489.066L335.176 489.04L335.145 488.998L335.027 489.014ZM334.542 485.112L334.664 485.136L334.664 485.136L334.542 485.112ZM346.303 480.378L346.321 480.442L346.322 480.442L346.303 480.378ZM354.029 481.365L353.98 481.421L354.055 481.441L354.114 481.417L354.029 481.365ZM354.398 481.217L354.483 481.269L354.541 481.245L354.519 481.206L354.398 481.217ZM354.462 477.137L354.583 477.162L354.584 477.162L354.462 477.137ZM369.992 472.13L369.988 472.193L369.989 472.193L369.992 472.13ZM403.34 489.313L403.426 489.365L403.519 489.328L403.433 489.276L403.34 489.313ZM397.898 491.504L397.805 491.541L397.891 491.593L397.984 491.556L397.898 491.504ZM368.742 475.979L368.752 476.043L368.752 476.043L368.742 475.979ZM358.435 480.664L358.561 480.672L358.561 480.671L358.435 480.664ZM382.863 497.556L382.949 497.608L383.041 497.571L382.956 497.519L382.863 497.556ZM377.329 499.784L377.236 499.821L377.321 499.873L377.414 499.836L377.329 499.784ZM348.527 484.288L348.525 484.351L348.525 484.351L348.527 484.288ZM338.83 487.504L338.709 487.48L338.709 487.48L338.83 487.504ZM338.769 490.446L338.646 490.453L338.646 490.453L338.769 490.446ZM362.294 505.836L362.379 505.888L362.472 505.85L362.386 505.798L362.294 505.836ZM356.851 508.026L356.944 507.989L324.3 488.184L324.208 488.221L324.115 488.259L356.759 508.064L356.851 508.026ZM324.208 488.221L324.293 488.273L329.551 486.157L329.465 486.105L329.38 486.053L324.122 488.169L324.208 488.221ZM329.465 486.105L329.373 486.142L334.473 489.237L334.566 489.199L334.659 489.162L329.558 486.068L329.465 486.105ZM334.566 489.199L334.651 489.251L335.113 489.066L335.027 489.014L334.942 488.962L334.48 489.148L334.566 489.199ZM335.027 489.014L335.145 488.998C334.149 487.656 333.99 486.37 334.664 485.136L334.542 485.112L334.42 485.089C333.732 486.348 333.896 487.663 334.91 489.03L335.027 489.014ZM334.542 485.112L334.664 485.136C335.325 483.894 336.796 482.811 339.088 481.889L339.002 481.837L338.917 481.785C336.596 482.719 335.095 483.82 334.42 485.089L334.542 485.112ZM339.002 481.837L339.088 481.889C341.41 480.954 343.821 480.474 346.321 480.442L346.303 480.378L346.285 480.315C343.724 480.347 341.268 480.839 338.917 481.785L339.002 481.837ZM346.303 480.378L346.322 480.442C348.829 480.396 351.38 480.722 353.98 481.421L354.029 481.365L354.077 481.31C351.439 480.6 348.84 480.267 346.283 480.315L346.303 480.378ZM354.029 481.365L354.114 481.417L354.483 481.269L354.398 481.217L354.312 481.165L353.943 481.313L354.029 481.365ZM354.398 481.217L354.519 481.206C353.747 479.831 353.768 478.483 354.583 477.162L354.462 477.137L354.342 477.111C353.513 478.454 353.49 479.827 354.276 481.227L354.398 481.217ZM354.462 477.137L354.584 477.162C355.384 475.834 357.042 474.662 359.565 473.646L359.479 473.595L359.394 473.543C356.844 474.569 355.157 475.759 354.341 477.112L354.462 477.137ZM359.479 473.595L359.565 473.646C362.711 472.38 366.184 471.898 369.988 472.193L369.992 472.13L369.996 472.067C366.118 471.766 362.582 472.259 359.394 473.543L359.479 473.595ZM369.992 472.13L369.989 472.193C373.769 472.479 377.572 473.774 381.4 476.096L381.493 476.059L381.586 476.021C377.734 473.684 373.871 472.36 369.996 472.067L369.992 472.13ZM381.493 476.059L381.4 476.096L403.247 489.351L403.34 489.313L403.433 489.276L381.586 476.021L381.493 476.059ZM403.34 489.313L403.255 489.262L397.813 491.452L397.898 491.504L397.984 491.556L403.426 489.365L403.34 489.313ZM397.898 491.504L397.991 491.467L376.143 478.212L376.051 478.249L375.958 478.286L397.805 491.541L397.898 491.504ZM376.051 478.249L376.143 478.212C373.721 476.742 371.249 475.968 368.732 475.915L368.742 475.979L368.752 476.043C371.162 476.094 373.563 476.834 375.958 478.286L376.051 478.249ZM368.742 475.979L368.732 475.915C366.238 475.863 364.011 476.231 362.055 477.019L362.14 477.071L362.226 477.123C364.143 476.351 366.318 475.992 368.752 476.043L368.742 475.979ZM362.14 477.071L362.055 477.019C359.544 478.029 358.288 479.242 358.309 480.657L358.435 480.664L358.561 480.671C358.541 479.3 359.755 478.117 362.226 477.123L362.14 477.071ZM358.435 480.664L358.309 480.657C358.315 482.059 359.388 483.407 361.518 484.699L361.611 484.662L361.703 484.625C359.611 483.355 358.567 482.038 358.561 480.672L358.435 480.664ZM361.611 484.662L361.518 484.699L382.77 497.593L382.863 497.556L382.956 497.519L361.703 484.625L361.611 484.662ZM382.863 497.556L382.778 497.504L377.243 499.732L377.329 499.784L377.414 499.836L382.949 497.608L382.863 497.556ZM377.329 499.784L377.421 499.746L355.064 486.182L354.971 486.219L354.878 486.257L377.236 499.821L377.329 499.784ZM354.971 486.219L355.064 486.182C353.187 485.044 351.007 484.389 348.528 484.224L348.527 484.288L348.525 484.351C350.926 484.51 353.043 485.143 354.878 486.257L354.971 486.219ZM348.527 484.288L348.529 484.224C346.037 484.052 343.75 484.387 341.67 485.224L341.755 485.276L341.841 485.328C343.881 484.507 346.107 484.183 348.525 484.351L348.527 484.288ZM341.755 485.276L341.67 485.224C340.238 485.801 339.251 486.553 338.709 487.48L338.83 487.504L338.952 487.529C339.481 486.623 340.444 485.89 341.841 485.328L341.755 485.276ZM338.83 487.504L338.709 487.48C338.182 488.401 338.162 489.392 338.646 490.453L338.769 490.446L338.892 490.439C338.417 489.398 338.438 488.428 338.952 487.529L338.83 487.504ZM338.769 490.446L338.646 490.453C339.133 491.502 340.185 492.516 341.798 493.495L341.891 493.457L341.984 493.42C340.395 492.456 339.366 491.463 338.892 490.439L338.769 490.446ZM341.891 493.457L341.798 493.495L362.201 505.873L362.294 505.836L362.386 505.798L341.984 493.42L341.891 493.457ZM362.294 505.836L362.208 505.784L356.766 507.974L356.851 508.026L356.937 508.078L362.379 505.888L362.294 505.836ZM417.467 482.233L417.486 482.297L417.487 482.297L417.467 482.233ZM406.297 480.809L406.249 480.865L406.249 480.865L406.297 480.809ZM388.381 469.94L388.261 469.952L388.261 469.952L388.381 469.94ZM387.864 464.25L387.741 464.227L387.741 464.227L387.864 464.25ZM400.217 458.269L400.245 458.333L400.246 458.333L400.217 458.269ZM405.687 458.47L405.662 458.531L405.665 458.531L405.687 458.47ZM409.538 459.107L409.507 459.167L409.573 459.179L409.624 459.159L409.538 459.107ZM409.999 458.922L410.085 458.974L410.178 458.936L410.092 458.884L409.999 458.922ZM393.932 449.174L393.847 449.122L393.754 449.159L393.84 449.211L393.932 449.174ZM399.375 446.983L399.467 446.946L399.382 446.894L399.289 446.931L399.375 446.983ZM442.9 473.39L442.985 473.442L443.078 473.405L442.992 473.353L442.9 473.39ZM437.642 475.506L437.549 475.544L437.635 475.596L437.727 475.558L437.642 475.506ZM432.626 472.463L432.719 472.426L432.634 472.374L432.541 472.412L432.626 472.463ZM431.981 472.723L431.895 472.671L431.843 472.692L431.857 472.728L431.981 472.723ZM432.527 474.777L432.653 474.779L432.652 474.778L432.527 474.777ZM431.769 477.506L431.889 477.533L431.889 477.533L431.769 477.506ZM427.54 474.125L427.664 474.144L427.664 474.143L427.54 474.125ZM426.576 470.073L426.694 470.057L426.693 470.057L426.576 470.073ZM413.678 462.224L413.622 462.277L413.622 462.278L413.678 462.224ZM405.972 460.993L405.985 461.057L405.986 461.057L405.972 460.993ZM394.712 465.612L394.836 465.63L394.836 465.63L394.712 465.612ZM395.675 469.664L395.558 469.68L395.558 469.68L395.675 469.664ZM408.237 477.262L408.18 477.315L408.181 477.315L408.237 477.262ZM416.201 478.603L416.21 478.667L416.212 478.667L416.201 478.603ZM427.345 480.337L427.26 480.285C424.325 481.467 421.054 482.094 417.446 482.169L417.467 482.233L417.487 482.297C421.148 482.221 424.463 481.584 427.431 480.389L427.345 480.337ZM417.467 482.233L417.447 482.169C413.824 482.236 410.124 481.765 406.345 480.754L406.297 480.809L406.249 480.865C410.066 481.887 413.813 482.365 417.486 482.297L417.467 482.233ZM406.297 480.809L406.345 480.754C402.554 479.734 398.934 478.18 395.486 476.088L395.393 476.126L395.301 476.163C398.767 478.266 402.416 479.834 406.249 480.865L406.297 480.809ZM395.393 476.126L395.486 476.088C392.067 474.014 389.741 471.961 388.502 469.928L388.381 469.94L388.261 469.952C389.514 472.006 391.862 474.077 395.301 476.163L395.393 476.126ZM388.381 469.94L388.502 469.928C387.262 467.895 387.092 466.01 387.986 464.273L387.864 464.25L387.741 464.227C386.834 465.989 387.009 467.898 388.261 469.952L388.381 469.94ZM387.864 464.25L387.986 464.273C388.881 462.536 390.808 461.07 393.774 459.876L393.689 459.825L393.603 459.773C390.605 460.98 388.649 462.465 387.741 464.227L387.864 464.25ZM393.689 459.825L393.774 459.876C396.072 458.952 398.228 458.44 400.245 458.333L400.217 458.269L400.189 458.206C398.113 458.316 395.918 458.841 393.603 459.773L393.689 459.825ZM400.217 458.269L400.246 458.333C402.281 458.21 404.085 458.277 405.662 458.531L405.687 458.47L405.711 458.409C404.089 458.149 402.247 458.082 400.187 458.206L400.217 458.269ZM405.687 458.47L405.665 458.531C407.264 458.773 408.545 458.985 409.507 459.167L409.538 459.107L409.569 459.048C408.599 458.864 407.312 458.651 405.709 458.409L405.687 458.47ZM409.538 459.107L409.624 459.159L410.085 458.974L409.999 458.922L409.914 458.87L409.453 459.055L409.538 459.107ZM409.999 458.922L410.092 458.884L394.025 449.137L393.932 449.174L393.84 449.211L409.907 458.959L409.999 458.922ZM393.932 449.174L394.018 449.226L399.46 447.035L399.375 446.983L399.289 446.931L393.847 449.122L393.932 449.174ZM399.375 446.983L399.282 447.021L442.807 473.427L442.9 473.39L442.992 473.353L399.467 446.946L399.375 446.983ZM442.9 473.39L442.814 473.338L437.556 475.455L437.642 475.506L437.727 475.558L442.985 473.442L442.9 473.39ZM437.642 475.506L437.735 475.469L432.719 472.426L432.626 472.463L432.534 472.501L437.549 475.544L437.642 475.506ZM432.626 472.463L432.541 472.412L431.895 472.671L431.981 472.723L432.066 472.775L432.712 472.515L432.626 472.463ZM431.981 472.723L431.857 472.728C432.051 473.247 432.233 473.929 432.401 474.776L432.527 474.777L432.652 474.778C432.483 473.93 432.301 473.243 432.105 472.719L431.981 472.723ZM432.527 474.777L432.401 474.775C432.554 475.603 432.305 476.504 431.649 477.479L431.769 477.506L431.889 477.533C432.553 476.546 432.809 475.628 432.653 474.779L432.527 474.777ZM431.769 477.506L431.65 477.478C430.985 478.437 429.526 479.373 427.26 480.285L427.345 480.337L427.431 480.389C429.715 479.47 431.206 478.518 431.889 477.533L431.769 477.506ZM423.578 477.307L423.663 477.359C425.863 476.473 427.2 475.402 427.664 474.144L427.54 474.125L427.415 474.106C426.963 475.333 425.658 476.383 423.492 477.255L423.578 477.307ZM427.54 474.125L427.664 474.143C428.112 472.879 427.787 471.517 426.694 470.057L426.576 470.073L426.459 470.089C427.538 471.53 427.855 472.868 427.415 474.106L427.54 474.125ZM426.576 470.073L426.693 470.057C425.586 468.589 423.794 467.104 421.321 465.604L421.228 465.641L421.135 465.678C423.592 467.169 425.365 468.639 426.459 470.089L426.576 470.073ZM421.228 465.641L421.321 465.604C418.876 464.12 416.347 462.975 413.733 462.17L413.678 462.224L413.622 462.278C416.202 463.072 418.706 464.205 421.135 465.678L421.228 465.641ZM413.678 462.224L413.734 462.171C411.105 461.357 408.512 460.942 405.958 460.929L405.972 460.993L405.986 461.057C408.485 461.069 411.03 461.475 413.622 462.277L413.678 462.224ZM405.972 460.993L405.959 460.929C403.386 460.908 400.985 461.349 398.755 462.246L398.84 462.298L398.926 462.35C401.123 461.466 403.476 461.036 405.985 461.057L405.972 460.993ZM398.84 462.298L398.755 462.246C396.432 463.181 395.039 464.297 394.587 465.593L394.712 465.612L394.836 465.63C395.277 464.365 396.636 463.272 398.926 462.35L398.84 462.298ZM394.712 465.612L394.587 465.593C394.138 466.872 394.463 468.235 395.558 469.68L395.675 469.664L395.792 469.647C394.712 468.222 394.395 466.883 394.836 465.63L394.712 465.612ZM395.675 469.664L395.558 469.68C396.653 471.11 398.354 472.523 400.658 473.921L400.751 473.883L400.843 473.846C398.557 472.459 396.874 471.059 395.792 469.647L395.675 469.664ZM400.751 473.883L400.658 473.921C402.99 475.336 405.497 476.468 408.18 477.315L408.237 477.262L408.294 477.209C405.642 476.371 403.158 475.251 400.843 473.846L400.751 473.883ZM408.237 477.262L408.181 477.315C410.867 478.148 413.544 478.6 416.21 478.667L416.201 478.603L416.192 478.539C413.576 478.473 410.944 478.031 408.293 477.208L408.237 477.262ZM416.201 478.603L416.212 478.667C418.887 478.719 421.371 478.281 423.663 477.359L423.578 477.307L423.492 477.255C421.234 478.164 418.801 478.59 416.191 478.539L416.201 478.603Z" fill="black" mask="url(#path-12-outside-1_11_6)"/>
<mask id="path-14-outside-2_11_6" maskUnits="userSpaceOnUse" x="621.274" y="318.966" width="108.9" height="54.9243" fill="black">
<rect fill="white" x="621.274" y="318.966" width="108.9" height="54.9243"/>
<path d="M683.55 373.229L621.846 340.561L643.194 330.522C648.13 328.201 653.005 326.731 657.819 326.114C662.614 325.486 667.198 325.569 671.572 326.363C675.946 327.158 679.951 328.517 683.587 330.442C687.222 332.367 689.685 334.431 690.975 336.636C692.265 338.84 692.14 341.108 690.6 343.438C689.04 345.758 685.813 348.069 680.918 350.371L663.642 358.495L656.893 354.922L673.922 346.914C677.295 345.328 679.528 343.796 680.621 342.318C681.734 340.831 681.869 339.402 681.027 338.031C680.186 336.64 678.53 335.29 676.059 333.982C673.589 332.674 670.956 331.753 668.162 331.22C665.368 330.686 662.431 330.642 659.349 331.087C656.247 331.522 652.99 332.542 649.576 334.147L636.125 340.472L691.2 369.631L683.55 373.229ZM685.57 344.569L728.837 351.932L719.953 356.11L676.932 348.631L685.57 344.569Z"/>
</mask>
<path d="M683.55 373.229L621.846 340.561L643.194 330.522C648.13 328.201 653.005 326.731 657.819 326.114C662.614 325.486 667.198 325.569 671.572 326.363C675.946 327.158 679.951 328.517 683.587 330.442C687.222 332.367 689.685 334.431 690.975 336.636C692.265 338.84 692.14 341.108 690.6 343.438C689.04 345.758 685.813 348.069 680.918 350.371L663.642 358.495L656.893 354.922L673.922 346.914C677.295 345.328 679.528 343.796 680.621 342.318C681.734 340.831 681.869 339.402 681.027 338.031C680.186 336.64 678.53 335.29 676.059 333.982C673.589 332.674 670.956 331.753 668.162 331.22C665.368 330.686 662.431 330.642 659.349 331.087C656.247 331.522 652.99 332.542 649.576 334.147L636.125 340.472L691.2 369.631L683.55 373.229ZM685.57 344.569L728.837 351.932L719.953 356.11L676.932 348.631L685.57 344.569Z" fill="#EFEBEB"/>
<path d="M683.55 373.229L683.459 373.272L683.547 373.319L683.638 373.276L683.55 373.229ZM621.846 340.561L621.757 340.514L621.667 340.557L621.755 340.603L621.846 340.561ZM657.819 326.114L657.855 326.175L657.856 326.175L657.819 326.114ZM671.572 326.363L671.533 326.423L671.533 326.423L671.572 326.363ZM690.975 336.636L690.854 336.652L690.854 336.652L690.975 336.636ZM690.6 343.438L690.72 343.46L690.721 343.46L690.6 343.438ZM663.642 358.495L663.552 358.538L663.64 358.584L663.73 358.542L663.642 358.495ZM656.893 354.922L656.805 354.875L656.714 354.918L656.803 354.965L656.893 354.922ZM680.621 342.318L680.502 342.294L680.502 342.295L680.621 342.318ZM681.027 338.031L680.906 338.047L680.906 338.047L681.027 338.031ZM659.349 331.087L659.387 331.148L659.388 331.148L659.349 331.087ZM636.125 340.472L636.037 340.426L635.946 340.468L636.034 340.515L636.125 340.472ZM691.2 369.631L691.289 369.678L691.379 369.636L691.291 369.589L691.2 369.631ZM685.57 344.569L685.607 344.509L685.536 344.497L685.482 344.522L685.57 344.569ZM728.837 351.932L728.926 351.979L729.079 351.907L728.874 351.873L728.837 351.932ZM719.953 356.11L719.915 356.17L719.987 356.183L720.041 356.157L719.953 356.11ZM676.932 348.631L676.844 348.584L676.693 348.655L676.895 348.691L676.932 348.631ZM683.55 373.229L683.64 373.187L621.936 340.518L621.846 340.561L621.755 340.603L683.459 373.272L683.55 373.229ZM621.846 340.561L621.934 340.608L643.282 330.569L643.194 330.522L643.106 330.475L621.757 340.514L621.846 340.561ZM643.194 330.522L643.282 330.569C648.209 328.252 653.067 326.789 657.855 326.175L657.819 326.114L657.784 326.053C652.944 326.673 648.051 328.149 643.106 330.475L643.194 330.522ZM657.819 326.114L657.856 326.175C662.627 325.55 667.185 325.633 671.533 326.423L671.572 326.363L671.611 326.304C667.211 325.505 662.6 325.422 657.783 326.053L657.819 326.114ZM671.572 326.363L671.533 326.423C675.885 327.213 679.873 328.566 683.496 330.485L683.587 330.442L683.677 330.399C680.029 328.468 676.007 327.102 671.611 326.304L671.572 326.363ZM683.587 330.442L683.496 330.485C687.119 332.403 689.57 334.459 690.854 336.652L690.975 336.636L691.096 336.62C689.8 334.404 687.325 332.331 683.677 330.399L683.587 330.442ZM690.975 336.636L690.854 336.652C692.136 338.843 692.013 341.097 690.48 343.417L690.6 343.438L690.721 343.46C692.268 341.119 692.394 338.838 691.096 336.62L690.975 336.636ZM690.6 343.438L690.48 343.416C688.929 345.724 685.715 348.027 680.83 350.324L680.918 350.371L681.007 350.418C685.911 348.112 689.152 345.793 690.72 343.46L690.6 343.438ZM680.918 350.371L680.83 350.324L663.554 358.448L663.642 358.495L663.73 358.542L681.007 350.418L680.918 350.371ZM663.642 358.495L663.733 358.453L656.984 354.879L656.893 354.922L656.803 354.965L663.552 358.538L663.642 358.495ZM656.893 354.922L656.982 354.969L674.011 346.961L673.922 346.914L673.834 346.867L656.805 354.875L656.893 354.922ZM673.922 346.914L674.011 346.961C677.391 345.371 679.638 343.832 680.74 342.342L680.621 342.318L680.502 342.295C679.418 343.76 677.199 345.285 673.834 346.867L673.922 346.914ZM680.621 342.318L680.739 342.342C681.861 340.844 681.999 339.4 681.148 338.014L681.027 338.031L680.906 338.047C681.739 339.403 681.607 340.818 680.502 342.294L680.621 342.318ZM681.027 338.031L681.148 338.015C680.3 336.611 678.631 335.253 676.15 333.939L676.059 333.982L675.969 334.024C678.428 335.327 680.072 336.668 680.906 338.047L681.027 338.031ZM676.059 333.982L676.15 333.939C673.668 332.625 671.02 331.698 668.204 331.161L668.162 331.22L668.121 331.279C670.893 331.808 673.509 332.722 675.969 334.024L676.059 333.982ZM668.162 331.22L668.204 331.161C665.381 330.622 662.415 330.578 659.31 331.026L659.349 331.087L659.388 331.148C662.446 330.706 665.355 330.751 668.121 331.279L668.162 331.22ZM659.349 331.087L659.311 331.026C656.184 331.464 652.909 332.491 649.487 334.1L649.576 334.147L649.664 334.194C653.07 332.592 656.311 331.579 659.387 331.148L659.349 331.087ZM649.576 334.147L649.487 334.1L636.037 340.426L636.125 340.472L636.213 340.519L649.664 334.194L649.576 334.147ZM636.125 340.472L636.034 340.515L691.11 369.674L691.2 369.631L691.291 369.589L636.215 340.43L636.125 340.472ZM691.2 369.631L691.112 369.585L683.461 373.182L683.55 373.229L683.638 373.276L691.289 369.678L691.2 369.631ZM685.57 344.569L685.534 344.629L728.801 351.992L728.837 351.932L728.874 351.873L685.607 344.509L685.57 344.569ZM728.837 351.932L728.749 351.886L719.864 356.064L719.953 356.11L720.041 356.157L728.926 351.979L728.837 351.932ZM719.953 356.11L719.99 356.051L676.97 348.571L676.932 348.631L676.895 348.691L719.915 356.17L719.953 356.11ZM676.932 348.631L677.021 348.678L685.659 344.616L685.57 344.569L685.482 344.522L676.844 348.584L676.932 348.631Z" fill="black" mask="url(#path-14-outside-2_11_6)"/>
<path d="M590.966 110.229C590.966 215.432 569.503 215.432 569.503 215.432C543.628 215.432 543.628 215.432 543.628 126.216C543.628 37 543.271 48.3454 569.503 37C590.966 50.9238 590.966 60.9566 590.966 110.229Z" fill="#404040"/>
<path d="M683.903 160.506C657.601 254.45 636.741 250.08 636.741 250.08C611.593 244.812 611.593 244.812 633.898 165.144C656.204 85.4757 653.02 95.5342 681.352 90.7438C698.73 107.547 696.222 116.507 683.903 160.506Z" fill="#4B4B4B"/>
<path d="M769.811 260.713C709.626 325.833 690.047 312.294 690.047 312.294C666.442 295.971 666.442 295.971 717.481 240.746C768.519 185.521 761.703 192.319 792.124 201.844C803.738 224.002 797.999 230.213 769.811 260.713Z" fill="#595959"/>
<path d="M819.42 404.884C739.013 431.645 728.275 407.504 728.275 407.504C715.329 378.401 715.329 378.401 783.517 355.706C851.705 333.011 842.855 335.495 864.651 362.115C864.747 389.797 857.079 392.35 819.42 404.884Z" fill="#4E5357"/>
<path d="M817.984 546.54C735.599 524.741 744.346 500.007 744.346 500.007C754.89 470.187 754.89 470.187 824.757 488.672C894.623 507.158 885.884 504.396 884.078 536.978C864.427 558.828 856.57 556.749 817.984 546.54Z" fill="#6F6F6F"/>
<path d="M787.479 666.878C711.528 606.741 727.764 591.398 727.764 591.398C747.339 572.9 747.339 572.9 811.748 623.899C876.158 674.898 868.237 668.157 856.583 693.395C830.294 700.779 823.051 695.044 787.479 666.878Z" fill="#797979"/>
<path d="M724.078 751.475C666.442 662.863 683.201 654.706 683.201 654.706C703.405 644.873 703.405 644.873 752.283 720.02C801.161 795.167 795.224 785.475 780.957 805C756.569 801.428 751.073 792.977 724.078 751.475Z" fill="#858585"/>
<path d="M639.835 796.564C609.208 698.402 627.773 694.067 627.773 694.067C650.156 688.842 650.156 688.842 676.129 772.088C702.102 855.334 699.108 844.675 679.72 860.559C657.101 851.901 654.18 842.539 639.835 796.564Z" fill="#909090"/>
<path d="M541.948 783.024C540.051 688.447 559.278 688.159 559.278 688.159C582.457 687.811 582.457 687.811 584.066 768.015C585.675 848.22 585.791 838.015 562.496 848.568C543.018 836.339 542.837 827.319 541.948 783.024Z" fill="#9B9B9B"/>
<path d="M346.005 301.891C283.692 248.785 297.188 236.936 297.188 236.936C313.459 222.651 313.459 222.651 366.303 267.688C419.146 312.724 412.65 306.8 402.875 327.009C381.132 331.829 375.189 326.764 346.005 301.891Z" fill="#D1D1D1"/>
<path d="M391.544 216.066C341.301 131.996 358.383 124.358 358.383 124.358C378.977 115.149 378.977 115.149 421.585 186.443C464.193 257.737 459.058 248.544 443.599 266.946C419.867 263.458 415.075 255.44 391.544 216.066Z" fill="#DCDCDC"/>
<path d="M271.615 376.436C292.325 359.353 302.351 361.836 351.589 374.032C355.892 375.098 360.008 376.155 363.944 377.201L289.408 406.4C269.729 399.329 273.537 394.125 271.615 376.436Z" fill="#C6C6C6"/>
<path d="M506.521 686.307C503.785 694.931 500.438 705.136 496.468 717.237C471.155 794.407 474.682 784.669 448.853 788.933C434.304 772.349 437.15 763.671 451.13 721.052C452.074 718.174 453.007 715.392 453.928 712.702L506.521 686.307Z" fill="#A7A7A7"/>
</g>
<defs>
<filter id="filter0_d_11_6" x="0" y="0" width="1008" height="936" filterUnits="userSpaceOnUse" color-interpolation-filters="sRGB">
<feFlood flood-opacity="0" result="BackgroundImageFix"/>
<feColorMatrix in="SourceAlpha" type="matrix" values="0 0 0 0 0 0 0 0 0 0 0 0 0 0 0 0 0 0 127 0" result="hardAlpha"/>
<feOffset dy="4"/>
<feGaussianBlur stdDeviation="2"/>
<feComposite in2="hardAlpha" operator="out"/>
<feColorMatrix type="matrix" values="0 0 0 0 0 0 0 0 0 0 0 0 0 0 0 0 0 0 0.25 0"/>
<feBlend mode="normal" in2="BackgroundImageFix" result="effect1_dropShadow_11_6"/>
<feBlend mode="normal" in="SourceGraphic" in2="effect1_dropShadow_11_6" result="shape"/>
</filter>
<linearGradient id="paint0_linear_11_6" x1="504" y1="0" x2="504" y2="928" gradientUnits="userSpaceOnUse">
<stop stop-color="#012135"/>
<stop offset="0.5" stop-color="#47B2F4"/>
<stop offset="1" stop-color="#03619B"/>
</linearGradient>
</defs>
</svg>
